<?xml version="1.0" encoding="utf-8"?>
<!-- Generator: Adobe Illustrator 20.1.0, SVG Export Plug-In . SVG Version: 6.00 Build 0)  -->
<svg version="1.1" id="Logo" xmlns="http://www.w3.org/2000/svg" xmlns:xlink="http://www.w3.org/1999/xlink" x="0px" y="0px"
	 viewBox="0 0 490.3 618.2" style="enable-background:new 0 0 490.3 618.2;" xml:space="preserve">
<style type="text/css">
	.st0{fill:#006549;}
	.st1{fill:#F0AF00;}
	.st2{fill:#560F6B;}
	.st3{fill:#929497;}
	.st4{fill:#EFAF1D;}
	.st5{fill:#55266A;}
	.st6{fill:#FFFFFF;}
	.st7{fill:#231F20;}
</style>
<title>cal games logo(white text)</title>
<g id="banner">
	<path class="st0" d="M96.9,540.6l-44.4-9.7c0,0,7.3-12,7.3-25.7c0.1-3.7,0-7.4-0.5-11L0,501.5l39.5,21.4L6,551.5L96.9,540.6z"/>
	<path class="st0" d="M101.8,538l-1.9-16.1c-18.9,3-33.2,5.9-40.9,7.6L101.8,538z"/>
	<path class="st0" d="M393.4,540.6l44.4-9.7c0,0-7.3-12-7.3-25.7c-0.1-3.7,0-7.4,0.5-11l59.3,7.2l-39.5,21.4l33.5,28.6L393.4,540.6z
		"/>
	<path class="st0" d="M388.5,538l1.9-16.1c18.9,3,33.2,5.9,40.9,7.6L388.5,538z"/>
	<path class="st0" d="M431.8,475.6c0,0-75.8-21.9-193.9-21.9c-96.2,0-179.5,21.9-179.5,21.9s4.9,13.2,4.9,26.4
		c-0.1,8.2-1.7,16.4-4.9,24c0,0,82.8-19.9,179.5-19.9C356,506,431.8,526,431.8,526c-2.8-7.9-4.3-16.1-4.5-24.5
		C427.3,488.2,431.8,475.6,431.8,475.6z"/>
</g>
<path id="gaurd" class="st1" d="M138.2,75.2c-11.1,4.6-41.3,18-47,20.4v-0.1l-0.4,0.3L90.3,96v0.1c-5.1,3.4-32.5,22-42.3,28.9
	c-9.7,6.9-38.8,29-38.8,29l11,18.9c0,0,25.7-26.1,35.2-34.1c9.8-8.3,42-31,42-31s36.3-15.1,48.6-19.1c11.8-3.8,47.6-11.6,47.6-11.6
	l-10.1-19.4C183.4,57.7,149.3,70.6,138.2,75.2z"/>
<path id="handle" class="st2" d="M89.5,92.9L89.5,92.9l0.4-0.3l0.4-0.3l0.1,0.1c2-0.8,7.2-3,13.6-5.6l-40.4-59
	c-3.2,6.9-10.2,11.1-17.8,10.7l30.1,64.1C82.2,98.1,87.5,94.3,89.5,92.9z"/>
<ellipse id="paumel" transform="matrix(2.286266e-02 -0.9997 0.9997 2.286266e-02 26.0706 63.3166)" class="st1" cx="45.4" cy="18.3" rx="18.3" ry="18.3"/>
<path class="st3" d="M87.8,136.1c-1.3-2.6-6.6-10-7.6-11.9c7.6-5.4,14.6-10.3,17.9-12.6l14.8,26.8
	C101.6,137.1,96.2,136.4,87.8,136.1z"/>
<path class="st3" d="M100.3,110.6l0.8-0.5c0,0,9-3.3,19.7-7c3.7,7,12.3,21.2,21.2,38.1c-9.9-1.1-18.5-0.9-26.5-2.4L100.3,110.6z"/>
<path class="st3" d="M321,516.9l26.6,3c25.2,43.5,31.7,57.3,33.8,63.3c2.6,7.4-3.3,28.2-5.1,34.1l-57.4-100.4L321,516.9L321,516.9z"
	/>
<path class="st3" d="M311.7,516.3l4.1,0.4L374,618.2c-6.3-2.1-25.7-6.2-31-12c-2.1-2.3-15.2-26.4-45.9-78.6L311.7,516.3z"/>
<path id="gaurd-2" class="st1" d="M352.1,75.2c11.1,4.6,41.3,18,47,20.4v-0.1l0.4,0.3L400,96v0.1c5.1,3.4,32.5,22,42.3,28.9
	c9.7,6.9,38.8,29,38.8,29l-11,18.9c0,0-25.7-26.1-35.2-34.1c-9.8-8.3-42-31-42-31s-36.3-15.1-48.6-19.1
	c-11.8-3.8-47.6-11.6-47.6-11.6l10.1-19.4C306.9,57.7,341,70.6,352.1,75.2z"/>
<path id="handle-2" class="st2" d="M400.8,92.9l0.1-0.1l-0.5-0.2l-0.4-0.3v0.1c-2-0.8-7.2-3-13.5-5.6l40.4-59
	c3.2,6.9,10.2,11.1,17.8,10.7l-30.1,64.1C408.1,98.1,402.8,94.3,400.8,92.9z"/>
<ellipse id="paumel-2" transform="matrix(0.9997 -2.286270e-02 2.286270e-02 0.9997 -0.3021 10.176)" class="st1" cx="444.9" cy="18.3" rx="18.3" ry="18.3"/>
<path class="st3" d="M402.5,136.1c1.3-2.6,6.6-10,7.6-11.9c-7.6-5.4-14.6-10.3-17.9-12.6l-14.8,26.8
	C388.7,137.1,394.1,136.4,402.5,136.1z"/>
<path class="st3" d="M390,110.6l-0.8-0.5c0,0-9-3.3-19.7-7c-3.7,7-12.3,21.2-21.2,38.1c9.9-1.1,18.5-0.9,26.5-2.4L390,110.6z"/>
<path class="st3" d="M169.3,516.9l-26.6,3c-25.2,43.5-31.7,57.3-33.8,63.3c-2.6,7.4,3.3,28.2,5.1,34.1L171.4,517L169.3,516.9z"/>
<path class="st3" d="M178.6,516.3l-4.1,0.4l-58.1,101.5c6.3-2.1,25.7-6.2,31-12c2.1-2.3,15.2-26.4,45.9-78.6L178.6,516.3z"/>
<path class="st4" d="M245.4,519.2c-0.4,0-5.3-3.4-12.5-8.5c-16.9,0.4-33.2,1.5-48.6,3c25.6,19,55.1,42.8,61.2,42.8
	c5.9,0,34.6-25,60.6-44.2c-15.2-1-31.3-1.6-48.4-1.7C250.5,515.8,245.7,519.2,245.4,519.2z"/>
<path class="st1" d="M414.8,200.6c1.5-17.4,14.8-50.6,6.3-59.2c-6.9-6.9-42,5.1-86.8,5.1H156.1c-44.8,0-79.9-12-86.8-5.1
	c-8.5,8.5,4.8,41.8,6.3,59.2c4.7,54.5-36.3,167.4-16.2,218.3c6.7,16.9,21.4,27.8,43.5,41.8c13.1-2.6,29.5-4.4,47.1-6.8
	c-26.6-15.6-48.2-27.7-55.6-46.4c-16.6-41.6,17.2-133.9,13.3-178.4c-1.2-14.2-9.8-43.7-5.1-48.4c3.8-3.8,34.6,4.2,71.5,4.2
	c37.9,0,108.1,0.7,142.4,0.7c36.9,0,68-7.7,71.5-4.2c4.1,4.1-3.9,34.1-5.1,48.4c-3.9,44.6,29.9,136.8,13.3,178.4
	c-6.9,17.4-28.5,31.1-53.1,45.6c17.6,1.8,33.4,4.1,47.1,6.3c19.4-12.8,34.9-25.8,41-41.3C451.1,368,410.1,255.1,414.8,200.6z"/>
<path class="st5" d="M245.1,511.7c1.1-0.6,2.1-1.3,3-2c-2,0-4.1,0-6.1,0.1C243,510.5,244.1,511.1,245.1,511.7z"/>
<path class="st2" d="M333.9,451.8c26-15.2,49.7-29.2,56.9-47.3c16-40.2-16.6-129.3-12.9-172.3c1.2-13.8,8.9-42.8,5-46.7
	c-3.4-3.4-33.4,4-69,4c-33,0-100.8-0.7-137.5-0.7c-35.6,0-65.3-7.7-69-4c-4.5,4.5,3.8,33,5,46.7c3.7,43-28.9,132.1-12.9,172.3
	c7.8,19.5,32.2,31.6,60.3,48.2c27-3.7,60.6-4,93.4-4C283,448,310,449.5,333.9,451.8z"/>
<path class="st4" d="M227.1,389c-13.3,0-24,10.7-24,24s10.7,24,24,24s24-10.7,24-24S240.4,389,227.1,389L227.1,389z M226.9,429.5
	c-9,0-16.3-7.3-16.3-16.3s7.3-16.3,16.3-16.3s16.3,7.3,16.3,16.3l0,0C243.1,422.2,235.9,429.5,226.9,429.5z"/>
<circle class="st4" cx="227.1" cy="413" r="9.8"/>
<path class="st4" d="M169.6,390c-13.3,0-24,10.7-24,24s10.7,24,24,24s24-10.7,24-24S182.9,390,169.6,390z M169.4,430.5
	c-9,0-16.3-7.3-16.3-16.3s7.3-16.3,16.3-16.3s16.3,7.3,16.3,16.3l0,0C185.6,423.2,178.4,430.5,169.4,430.5z"/>
<circle class="st4" cx="169.6" cy="414" r="9.8"/>
<path class="st4" d="M299.6,388.5c-13.3,0-24,10.7-24,24s10.7,24,24,24s24-10.7,24-24l0,0C323.6,399.2,312.9,388.5,299.6,388.5z
	 M299.4,429c-9,0-16.3-7.3-16.3-16.3s7.3-16.3,16.3-16.3s16.3,7.3,16.3,16.3l0,0C315.6,421.7,308.4,429,299.4,429z"/>
<circle class="st4" cx="299.6" cy="412.5" r="9.8"/>
<path class="st4" d="M324.6,244v-30.2c4.8-2,7-7.5,5-12.3s-7.5-7-12.3-5s-7,7.5-5,12.3c1.1,2.5,3.2,4.5,5.8,5.3v30h-70.5v53h102.5
	v-53h-25.5V244z M278.4,281.5c-5.9,0-10.8-4.8-10.8-10.8s4.8-10.8,10.8-10.8s10.8,4.8,10.8,10.8l0,0
	C289.1,276.7,284.3,281.5,278.4,281.5z M320.4,281.5c-5.9,0-10.8-4.8-10.8-10.8s4.8-10.8,10.8-10.8s10.8,4.8,10.8,10.8l0,0
	C331.1,276.7,326.3,281.5,320.4,281.5z"/>
<path class="st4" d="M226.5,331.1c3.3-10.6-2.5-21.9-13.1-25.2c-9.1-2.9-19,1.1-23.7,9.4c-13.7,1.7-25.6,10.5-31.2,23.2l73,30
	C236.3,356,234.4,341.9,226.5,331.1L226.5,331.1z M207.4,309.5c8.8,0,16,7.1,16,15.9c0,0.6,0,1.3-0.1,1.9
	c-7.3-7.7-17.4-12.1-28-12.3C198.3,311.5,202.8,309.5,207.4,309.5z"/>
<path class="st4" d="M331.6,370.5h-24v-32.2c13.9-3.9,23.5-16.5,23.5-30.9c0-0.6,0-1.3-0.1-1.9h-11.4c0,0.1,0,0.3,0,0.4
	c0,10.9-8.9,19.8-19.8,19.8s-19.8-8.9-19.8-19.8c0-0.1,0-0.3,0-0.4h-13.2c0,0.6-0.1,1.3-0.1,1.9c0,15.1,10.5,28.1,25.3,31.4v31.8
	h-21.1c-4.8-4.7-12.5-4.7-17.3,0h-104c-0.6-0.7-1.2-1.2-1.9-1.8l25-74c3.1-0.2,5.8-2,7.3-4.7h36l-8.1,24l16,8.9l-0.1,0.5l0.5-0.3
	l0.3,0.1l-0.1-0.3l15.9-8.9l-7.7-22.7c2.7-4.3,1.4-9.9-2.9-12.6c-4-2.5-9.2-1.6-12,2.1h-37.9c-2.5-4.3-8.1-5.8-12.5-3.3
	c-4.3,2.5-5.8,8.1-3.3,12.5c0.3,0.5,0.7,1,1.1,1.5L140,366.1c-7,0.1-12.5,5.8-12.4,12.8s5.8,12.5,12.8,12.4
	c4.5-0.1,8.7-2.5,10.8-6.5H251c3,6.2,10.5,8.8,16.7,5.7c2.5-1.2,4.5-3.2,5.7-5.7h58L331.6,370.5z M224,320.9l-11.4-7.2l9.1-18.3
	c1.6,0.6,3.3,0.7,5,0.3l9,18l-11.5,7.2l-0.1,0.5L224,320.9z"/>
<path class="st6" d="M89.7,502.6c-3.5-2.3-5.8-5.9-6.5-10c-0.9-4,0-8.3,2.5-11.6c2.5-3.4,6.2-5.7,10.4-6.3c4.2-0.8,8.6-0.1,12.3,2.1
	c-1.4,2-2.1,3.1-3.5,5.1c-2.4-1.3-5.1-1.7-7.8-1.2c-2.5,0.3-4.8,1.7-6.4,3.7c-1.4,2-1.9,4.5-1.4,6.9c0.3,2.5,1.7,4.8,3.8,6.2
	c2.1,1.4,4.7,1.8,7.1,1.3c2.6-0.4,5-1.7,6.8-3.6c1.9,1.5,2.9,2.3,4.8,3.8c-2.7,3.2-6.5,5.3-10.6,5.9
	C97.3,505.8,93.1,504.9,89.7,502.6z"/>
<path class="st6" d="M116.5,484.3c2.5-2.1,5.6-3.4,8.9-3.8c2.2-0.4,4.4,0,6.2,1.2c1.6,1.2,2.6,3.1,3,5.8l1.6,12.2l-5.7,0.8l-0.2-1.6
	c-1.2,1.1-2.7,1.9-4.3,2.3c-2.7,0.4-4.9,0.1-6.4-0.8c-1.6-1-2.6-2.6-2.8-4.5c-0.3-1.9,0.1-3.8,1.2-5.4c1.1-1.7,3.1-2.7,6-3.2
	c1.6-0.2,3.2,0,4.7,0.6l-0.1-0.6c-0.2-1.5-1.5-2.2-3.7-2c-2,0.1-4,0.9-5.7,2L116.5,484.3z M129.6,494.4l-0.3-2.3
	c-0.7-1-2.2-1.4-4.2-1c-2.3,0.5-3.7,1.9-3.5,3.4s1.9,2.3,4.3,2.1C127.9,496.4,129.1,495.6,129.6,494.4z"/>
<path class="st6" d="M141.3,499.1l-3.7-30.5l6-0.7l3.5,30.6L141.3,499.1z"/>
<path class="st6" d="M155.8,493.1c-3.2-2.6-5.3-6.4-5.6-10.5c-0.5-4.1,0.7-8.2,3.4-11.3c2.7-3.2,6.7-5.2,10.9-5.5
	c4.3-0.5,8.6,0.6,12.1,3.1c-1.6,1.9-2.3,2.9-3.9,4.8c-2.3-1.5-5-2.1-7.6-1.8c-2.6,0.1-5,1.3-6.6,3.2c-1.6,1.9-2.3,4.4-1.9,6.8
	c0.1,2.5,1.3,4.9,3.3,6.5c2,1.5,4.5,2.2,7,1.9c1.8-0.1,3.6-0.7,5-1.8l-0.4-5.3l-4.2,0.4l-0.5-5.7c4.2-0.4,6.3-0.5,10.5-0.9l1.1,14.3
	c-2.9,2.9-6.8,4.7-11,5C163.1,496.8,159,495.6,155.8,493.1z"/>
<path class="st6" d="M183.4,477c2.7-1.9,5.8-2.9,9.1-3c2.2-0.2,4.4,0.4,6.1,1.7c1.5,1.3,2.4,3.3,2.5,6l0.6,12.3l-5.8,0.3l-0.1-1.6
	c-1.3,1-2.8,1.7-4.4,1.9c-2.7,0.2-4.8-0.3-6.3-1.3c-1.5-1.1-2.4-2.8-2.4-4.7c-0.1-1.9,0.4-3.8,1.6-5.3c1.2-1.6,3.3-2.5,6.2-2.7
	c1.6,0,3.2,0.3,4.7,1V481c-0.1-1.5-1.3-2.3-3.5-2.3c-2,0-4,0.5-5.8,1.6L183.4,477z M195.6,488.1l-0.1-2.3c-0.6-1-2.1-1.6-4-1.3
	c-2.4,0.3-3.9,1.6-3.8,3.1c0.1,1.5,1.7,2.5,4.1,2.4C193.8,490,195.1,489.3,195.6,488.1L195.6,488.1z"/>
<path class="st6" d="M212.1,480.4l0.5,13.1l-5.8,0.2l-0.8-19.9l5.9-0.8l0.1,1.8c1.3-1.3,3.1-2,5-2c2.3-0.2,4.5,0.6,6.2,2.2
	c1.5-1.6,3.8-2.4,6.9-2.5c2.3-0.2,4.5,0.7,6.1,2.3c1.4,1.5,2.1,3.4,2.1,5.4v12.7h-5.8l-0.1-11.3c0.1-1.1-0.3-2.3-1-3.2
	c-0.8-0.8-1.9-1.3-3.1-1.2c-1.1,0-2.2,0.9-3,2.3c-0.1,0.4-0.1,0.9-0.1,1.3l0.2,12.1l-5.8,0.1l-0.3-11.3c0-1.1-0.3-2.3-1-3.2
	c-0.8-0.8-2-1.2-3.1-1.1C214.1,477.9,213,478.8,212.1,480.4z"/>
<path class="st6" d="M242.3,482.8c-0.1-2.8,1-5.5,3-7.4s4.8-3,7.6-2.8c2.8-0.1,5.4,1,7.3,3c1.8,2,2.7,4.7,2.5,7.4v2
	c-5.7-0.1-8.6-0.2-14.4-0.2c0.1,1,0.6,2,1.4,2.6c0.8,0.6,1.8,1,2.9,1c1.9,0,3.7-0.5,5.2-1.6l3.2,3.3c-1.6,2-4.4,3-8.5,2.9
	c-2.8,0.1-5.5-1-7.5-3C243.2,488.2,242.2,485.5,242.3,482.8z M255.7,478.3c-1.7-1.3-4.1-1.3-5.9-0.1c-0.8,0.6-1.3,1.5-1.3,2.5
	c3.4,0,5,0,8.4,0.1C257,479.9,256.5,478.9,255.7,478.3z"/>
<path class="st6" d="M279.5,474c1.1,0.5,2.1,1.3,3,2.2l-3.4,3.5c-0.8-1.1-2.1-1.8-3.5-1.8c-1-0.2-2,0.1-2.9,0.7
	c-0.5,0.5-0.5,1,0,1.4c0.8,0.6,1.8,1,2.7,1.1c1.8,0.3,3.5,0.9,5,2c1.3,1,1.9,2.8,1.7,5.2c0,1.8-1,3.5-2.5,4.4
	c-1.6,1-3.5,1.5-5.5,1.4c-1.7,0-3.3-0.4-4.8-1c-1.2-0.6-2.3-1.4-3.3-2.3l3.3-3.5c1.1,1.3,2.6,2,4.3,2.1c1.1,0.2,2.2,0,3.1-0.7
	c0.5-0.4,0.6-1,0.3-1.5c-0.3-0.5-1.4-0.9-3.3-1.2c-1.6-0.2-3.2-0.8-4.6-1.7c-1.4-0.9-2-2.5-2-4.8c0-1.9,0.9-3.7,2.6-4.8
	c1.5-1,3.3-1.5,5.1-1.5C276.5,473.1,278.1,473.4,279.5,474z"/>
<path class="st6" d="M313.3,465.3c2.7,0.1,5.4,1.1,7.5,2.9c1.8,1.7,2.6,4,2.3,7c-0.4,3.7-2.2,7-5.1,9.3c-2.2,2.1-4.7,3.9-7.4,5.2
	c4.5,0.4,6.7,0.6,11.2,1l-0.6,6.1c-8.3-0.8-12.5-1.2-20.8-1.7l0.4-6.1c1.4,0.1,4.1-1.4,8.3-4.5s6.6-5.3,7.4-6.7
	c0.8-1.3,0.9-2.9,0.3-4.3c-0.6-1.5-2.2-2.4-4.9-2.6c-2.2-0.3-4.5,0.4-6.1,2c-1.6-1.8-2.4-2.6-3.9-4.4c1.3-1.1,2.8-2.1,4.4-2.8
	C307.8,465.2,310.1,465,313.3,465.3z"/>
<path class="st6" d="M330.6,493.4c-1.8-3.4-2.5-7.4-2-11.2c0.3-3.9,1.8-7.6,4.3-10.6c3.8-4.3,10.4-4.7,14.7-0.9
	c0.9,0.8,1.7,1.8,2.3,2.9c1.8,3.5,2.4,7.4,1.7,11.3c-0.4,3.9-1.9,7.5-4.5,10.5c-3.7,4.2-10,4.6-14.2,0.9
	C331.9,495.5,331.2,494.5,330.6,493.4L330.6,493.4z M339,493c1.3,0.2,2.6-0.6,3.9-2.3c1.4-2,2.2-4.2,2.4-6.6c0.4-2.4,0.1-4.8-0.7-7
	c-0.8-2-2-3-3.4-3.2s-2.8,0.6-4,2.3c-1.4,2-2.2,4.3-2.3,6.7c-0.3,2.4-0.1,4.8,0.8,7C336.5,491.8,337.7,492.8,339,493z"/>
<path class="st6" d="M367.1,471.5L367.1,471.5l6.3,1l-4.7,30.4l-6.1-0.9l3.3-22.3c-1.9,1.4-2.9,2.1-4.8,3.5
	c-1.4-1.9-2.2-2.8-3.6-4.7C361.3,475.6,363.3,474.2,367.1,471.5z"/>
<path class="st6" d="M377.3,489c0.8-4.9,2.5-8.5,5.1-10.9c2.5-2.4,6.1-3.4,9.5-2.7c3.2,0.5,6.2,2.1,8.3,4.6l-3.9,3.5
	c-1.5-1.1-3.3-1.9-5.2-2.2c-1.6-0.4-3.3,0-4.6,1c-1.4,1.2-2.4,3-2.7,4.8c2-1.3,4.4-1.8,6.7-1.5c3.6,0.6,6.1,2,7.5,4.2
	c1.4,2.3,1.8,5.1,1.2,7.8c-0.5,2.7-2,5.1-4.2,6.6c-2.6,1.7-5.7,2.2-8.7,1.4c-4-0.8-6.7-2.7-8.1-5.6S376.5,493.5,377.3,489z
	 M383.3,494.8c-0.5,2.6,1.1,4.7,4.2,5.3s5.2-0.7,5.7-3.1c0.6-3.2-1-5.5-4.3-6c-2.5-0.6-4.9,1-5.5,3.5
	C383.4,494.6,383.3,494.7,383.3,494.8L383.3,494.8z"/>
<path class="st7" d="M204.2,161.6l-4.4,16.4h-4.5l-6-22.4h4.8l3.9,15.2l4-15.2h4.6l3.9,15.2l3.9-15.2h4.8l-6,22.4h-4.5L204.2,161.6z
	"/>
<path class="st7" d="M242,168.2l5.6,9.8h-5.1l-5.4-9.3H233v9.3h-4.5v-22.4h9.8c5.2,0,7.8,2.1,7.8,6.4
	C246.1,165.3,244.7,167.3,242,168.2z M233,164.5h6.3c1.8,0,2.7-0.8,2.8-2.5c0-1.5-1-2.2-2.7-2.3H233V164.5z"/>
<path class="st7" d="M269.7,168.1l5.6,9.8h-5.1l-5.4-9.3h-4.1v9.3h-4.5v-22.4h9.8c5.2,0,7.8,2.1,7.8,6.4
	C273.9,165.2,272.5,167.2,269.7,168.1z M260.7,164.4h6.3c1.8,0,2.7-0.8,2.8-2.5c0-1.5-1-2.2-2.7-2.3h-6.3L260.7,164.4z"/>
<path class="st7" d="M285.1,177.9v-22.4h15.7v4.2h-11.2v4.8h8.3v4.2h-8.3v9.3h-4.5V177.9z"/>
</svg>
